<mxfile host="app.diagrams.net" agent="Mozilla/5.0 (Windows NT 10.0; Win64; x64) AppleWebKit/537.36 (KHTML, like Gecko) Chrome/137.0.0.0 Safari/537.36" version="27.1.6">
  <diagram name="Page-1" id="4-HPhemy-RtVB5r8iuPV">
    <mxGraphModel dx="1678" dy="1974" grid="1" gridSize="10" guides="1" tooltips="1" connect="1" arrows="1" fold="1" page="1" pageScale="1" pageWidth="850" pageHeight="1100" math="0" shadow="0">
      <root>
        <mxCell id="0" />
        <mxCell id="1" parent="0" />
        <mxCell id="kYvd2Tz3C7XksMRl13nF-1" value="&lt;p style=&quot;margin:0px;margin-top:4px;text-align:center;&quot;&gt;&lt;b&gt;&lt;i&gt;Zombie&lt;/i&gt;&lt;/b&gt;&lt;/p&gt;&amp;nbsp; # health: int = 70&lt;br&gt;&lt;p style=&quot;margin: 0px 0px 0px 4px;&quot;&gt;&lt;span style=&quot;background-color: transparent; color: light-dark(rgb(0, 0, 0), rgb(255, 255, 255));&quot;&gt;&amp;nbsp;# baseSpeed: int = 4&lt;/span&gt;&lt;/p&gt;&lt;p style=&quot;margin: 0px 0px 0px 4px;&quot;&gt;&lt;span style=&quot;background-color: transparent; color: light-dark(rgb(0, 0, 0), rgb(255, 255, 255));&quot;&gt;&amp;nbsp;# speed: int&amp;nbsp; = 4&lt;/span&gt;&lt;/p&gt;&lt;p style=&quot;margin: 0px 0px 0px 4px;&quot;&gt;&lt;span style=&quot;background-color: transparent; color: light-dark(rgb(0, 0, 0), rgb(255, 255, 255));&quot;&gt;&amp;nbsp;# damage: int = 10&lt;/span&gt;&lt;/p&gt;&lt;p style=&quot;margin: 0px 0px 0px 4px;&quot;&gt;&lt;span style=&quot;background-color: transparent; color: light-dark(rgb(0, 0, 0), rgb(255, 255, 255));&quot;&gt;&amp;nbsp;# position: Tile&lt;/span&gt;&lt;/p&gt;&lt;p style=&quot;margin: 0px 0px 0px 4px;&quot;&gt;&lt;br&gt;&lt;/p&gt;&lt;p style=&quot;margin: 0px 0px 0px 4px;&quot;&gt;&amp;nbsp;# isFreeze: boolean&lt;/p&gt;&lt;p style=&quot;margin: 0px 0px 0px 4px;&quot;&gt;&amp;nbsp;# freezeTimer: int&lt;/p&gt;&lt;hr size=&quot;1&quot; style=&quot;border-style:solid;&quot;&gt;&lt;p style=&quot;margin: 0px 0px 0px 4px;&quot;&gt;&lt;i&gt;+&lt;/i&gt; Zombie (h: int, bs: int, d: int, pos: Tile)&lt;/p&gt;&lt;p style=&quot;margin: 0px 0px 0px 4px;&quot;&gt;+ move(): void&lt;/p&gt;&lt;p style=&quot;margin: 0px 0px 0px 4px;&quot;&gt;+&amp;nbsp;&lt;span style=&quot;background-color: transparent; color: light-dark(rgb(0, 0, 0), rgb(255, 255, 255));&quot;&gt;takeDamage(int): void&lt;/span&gt;&lt;span style=&quot;background-color: transparent; color: light-dark(rgb(0, 0, 0), rgb(255, 255, 255));&quot;&gt;&amp;nbsp;&lt;/span&gt;&lt;/p&gt;&lt;p style=&quot;margin: 0px 0px 0px 4px;&quot;&gt;+ freezeFor(ticks: int): void&lt;/p&gt;&lt;p style=&quot;margin: 0px 0px 0px 4px;&quot;&gt;+ update(): void&lt;/p&gt;&lt;p style=&quot;margin: 0px 0px 0px 4px;&quot;&gt;+ attack(): void&lt;/p&gt;&lt;p style=&quot;margin: 0px 0px 0px 4px;&quot;&gt;+ isAlive(): boolean&lt;/p&gt;" style="verticalAlign=top;align=left;overflow=fill;html=1;whiteSpace=wrap;" parent="1" vertex="1">
          <mxGeometry x="800" y="-30" width="280" height="270" as="geometry" />
        </mxCell>
        <mxCell id="kYvd2Tz3C7XksMRl13nF-2" value="&lt;p style=&quot;margin:0px;margin-top:4px;text-align:center;&quot;&gt;&lt;b&gt;Tile&lt;/b&gt;&lt;/p&gt;&lt;hr size=&quot;1&quot; style=&quot;border-style:solid;&quot;&gt;&amp;nbsp;- row: int&lt;div&gt;- column: int&lt;/div&gt;&lt;div&gt;- plants: Plant&lt;/div&gt;&lt;div&gt;- zombies: List&amp;lt;Zombie&amp;gt;&lt;hr size=&quot;1&quot; style=&quot;border-style:solid;&quot;&gt;&lt;p style=&quot;margin:0px;margin-left:4px;&quot;&gt;+ Tile(row: int, column:int)&lt;/p&gt;&lt;p style=&quot;margin:0px;margin-left:4px;&quot;&gt;&lt;br&gt;&lt;/p&gt;&lt;p style=&quot;margin:0px;margin-left:4px;&quot;&gt;+ setPlant(): void&lt;/p&gt;&lt;p style=&quot;margin:0px;margin-left:4px;&quot;&gt;+ removePlants(): void&lt;/p&gt;&lt;p style=&quot;margin:0px;margin-left:4px;&quot;&gt;+ isOccupied(): boolean&lt;/p&gt;&lt;p style=&quot;margin:0px;margin-left:4px;&quot;&gt;&lt;br&gt;&lt;/p&gt;&lt;p style=&quot;margin:0px;margin-left:4px;&quot;&gt;+ addZombie(z: Zombie): void&lt;/p&gt;&lt;p style=&quot;margin:0px;margin-left:4px;&quot;&gt;+ removeZombie(z: Zombie): void&lt;/p&gt;&lt;p style=&quot;margin:0px;margin-left:4px;&quot;&gt;&lt;br&gt;&lt;/p&gt;&lt;p style=&quot;margin: 0px 0px 0px 4px;&quot;&gt;+ getRow(): int&lt;/p&gt;&lt;p style=&quot;margin: 0px 0px 0px 4px;&quot;&gt;+ getColumn(): int&lt;/p&gt;&lt;p style=&quot;margin: 0px 0px 0px 4px;&quot;&gt;+ getPlants(): Plant&lt;/p&gt;&lt;p style=&quot;margin: 0px 0px 0px 4px;&quot;&gt;+ getZombies(): List&amp;lt;Zombie&amp;gt;&lt;/p&gt;&lt;/div&gt;" style="verticalAlign=top;align=left;overflow=fill;html=1;whiteSpace=wrap;" parent="1" vertex="1">
          <mxGeometry x="142.5" y="70" width="185" height="310" as="geometry" />
        </mxCell>
        <mxCell id="kYvd2Tz3C7XksMRl13nF-3" value="" style="edgeStyle=orthogonalEdgeStyle;rounded=0;orthogonalLoop=1;jettySize=auto;html=1;" parent="1" source="kYvd2Tz3C7XksMRl13nF-4" target="kYvd2Tz3C7XksMRl13nF-2" edge="1">
          <mxGeometry relative="1" as="geometry" />
        </mxCell>
        <mxCell id="kYvd2Tz3C7XksMRl13nF-4" value="The tile object removes or places the zombies.&lt;div&gt;The tile can have multiple zombies, but can only have one plant on it&lt;/div&gt;" style="text;html=1;align=center;verticalAlign=middle;resizable=0;points=[];autosize=1;strokeColor=none;fillColor=none;" parent="1" vertex="1">
          <mxGeometry x="40" y="420" width="390" height="40" as="geometry" />
        </mxCell>
        <mxCell id="kYvd2Tz3C7XksMRl13nF-5" value="&lt;p style=&quot;margin:0px;margin-top:4px;text-align:center;&quot;&gt;&lt;b&gt;NormalZombie&lt;/b&gt;&lt;/p&gt;&lt;hr size=&quot;1&quot; style=&quot;border-style:solid;&quot;&gt;&lt;br&gt;&lt;hr size=&quot;1&quot; style=&quot;border-style:solid;&quot;&gt;&lt;p style=&quot;margin: 0px 0px 0px 4px;&quot;&gt;&lt;span style=&quot;background-color: transparent; color: light-dark(rgb(0, 0, 0), rgb(255, 255, 255));&quot;&gt;+&amp;nbsp;&lt;/span&gt;&lt;span style=&quot;background-color: transparent; color: light-dark(rgb(0, 0, 0), rgb(255, 255, 255));&quot;&gt;NormalZombie(pos: &lt;/span&gt;&lt;span style=&quot;background-color: transparent; color: light-dark(rgb(0, 0, 0), rgb(255, 255, 255));&quot;&gt;Tile)&lt;/span&gt;&lt;/p&gt;&lt;p style=&quot;margin: 0px 0px 0px 4px;&quot;&gt;&lt;br&gt;&lt;/p&gt;&lt;p style=&quot;margin: 0px 0px 0px 4px;&quot;&gt;&lt;br&gt;&lt;/p&gt;" style="verticalAlign=top;align=left;overflow=fill;html=1;whiteSpace=wrap;" parent="1" vertex="1">
          <mxGeometry x="520" y="530" width="210" height="100" as="geometry" />
        </mxCell>
        <mxCell id="kYvd2Tz3C7XksMRl13nF-6" value="" style="endArrow=block;endSize=16;endFill=0;html=1;rounded=0;exitX=0.5;exitY=0;exitDx=0;exitDy=0;entryX=0.5;entryY=1;entryDx=0;entryDy=0;" parent="1" source="kYvd2Tz3C7XksMRl13nF-5" target="kYvd2Tz3C7XksMRl13nF-1" edge="1">
          <mxGeometry width="160" relative="1" as="geometry">
            <mxPoint x="910" y="310" as="sourcePoint" />
            <mxPoint x="1070" y="310" as="targetPoint" />
            <Array as="points">
              <mxPoint x="625" y="280" />
              <mxPoint x="860" y="280" />
              <mxPoint x="940" y="280" />
            </Array>
          </mxGeometry>
        </mxCell>
        <mxCell id="kYvd2Tz3C7XksMRl13nF-7" value="&lt;p style=&quot;margin:0px;margin-top:4px;text-align:center;&quot;&gt;&lt;b&gt;FlagZombie&lt;/b&gt;&lt;/p&gt;&lt;hr size=&quot;1&quot; style=&quot;border-style:solid;&quot;&gt;&lt;p style=&quot;margin: 0px 0px 0px 4px;&quot;&gt;&lt;span style=&quot;background-color: transparent; color: light-dark(rgb(0, 0, 0), rgb(255, 255, 255));&quot;&gt;- baseSpeed: = 3&lt;/span&gt;&lt;/p&gt;&lt;p style=&quot;margin: 0px 0px 0px 4px;&quot;&gt;- speed = 3&lt;/p&gt;&lt;hr size=&quot;1&quot; style=&quot;border-style:solid;&quot;&gt;&lt;p style=&quot;margin: 0px 0px 0px 4px;&quot;&gt;+ FlagZombie(pos: Tile)&lt;/p&gt;" style="verticalAlign=top;align=left;overflow=fill;html=1;whiteSpace=wrap;" parent="1" vertex="1">
          <mxGeometry x="760" y="530" width="180" height="100" as="geometry" />
        </mxCell>
        <mxCell id="kYvd2Tz3C7XksMRl13nF-8" value="&lt;p style=&quot;margin:0px;margin-top:4px;text-align:center;&quot;&gt;&lt;b&gt;ConeheadZombie&lt;/b&gt;&lt;/p&gt;&lt;hr size=&quot;1&quot; style=&quot;border-style:solid;&quot;&gt;&lt;p style=&quot;margin: 0px 0px 0px 4px;&quot;&gt;- baseSpeed = 2&lt;/p&gt;&lt;p style=&quot;margin: 0px 0px 0px 4px;&quot;&gt;- speed = 2&lt;/p&gt;&lt;hr size=&quot;1&quot; style=&quot;border-style:solid;&quot;&gt;&lt;p style=&quot;margin:0px;margin-left:4px;&quot;&gt;+ ConeheadZombie(pos: Tile)&lt;/p&gt;" style="verticalAlign=top;align=left;overflow=fill;html=1;whiteSpace=wrap;" parent="1" vertex="1">
          <mxGeometry x="1000" y="530" width="180" height="100" as="geometry" />
        </mxCell>
        <mxCell id="kYvd2Tz3C7XksMRl13nF-9" value="&lt;p style=&quot;margin:0px;margin-top:4px;text-align:center;&quot;&gt;&lt;b&gt;PoleVaultingZombie&lt;/b&gt;&lt;/p&gt;&lt;hr size=&quot;1&quot; style=&quot;border-style:solid;&quot;&gt;&amp;nbsp;- baseSpeed = 6&lt;div&gt;&amp;nbsp;- speed = 6&lt;span style=&quot;background-color: transparent; color: light-dark(rgb(0, 0, 0), rgb(255, 255, 255));&quot;&gt;&amp;nbsp;&lt;/span&gt;&lt;div&gt;&lt;div&gt;&amp;nbsp;- isJumped: boolean&lt;div&gt;&lt;hr size=&quot;1&quot; style=&quot;border-style:solid;&quot;&gt;&lt;p style=&quot;margin:0px;margin-left:4px;&quot;&gt;&lt;span style=&quot;background-color: transparent; color: light-dark(rgb(0, 0, 0), rgb(255, 255, 255));&quot;&gt;+ PoleVaultingZombie(pos: Tile)&lt;/span&gt;&lt;/p&gt;&lt;p style=&quot;margin:0px;margin-left:4px;&quot;&gt;&lt;span style=&quot;background-color: transparent; color: light-dark(rgb(0, 0, 0), rgb(255, 255, 255));&quot;&gt;+ jump(): void&lt;/span&gt;&lt;/p&gt;&lt;p style=&quot;margin:0px;margin-left:4px;&quot;&gt;+ isJumped: boolean&lt;/p&gt;&lt;p style=&quot;margin:0px;margin-left:4px;&quot;&gt;&lt;br&gt;&lt;/p&gt;&lt;/div&gt;&lt;/div&gt;&lt;/div&gt;&lt;/div&gt;" style="verticalAlign=top;align=left;overflow=fill;html=1;whiteSpace=wrap;" parent="1" vertex="1">
          <mxGeometry x="1220" y="534" width="190" height="146" as="geometry" />
        </mxCell>
        <mxCell id="kYvd2Tz3C7XksMRl13nF-10" value="&lt;p style=&quot;margin:0px;margin-top:4px;text-align:center;&quot;&gt;&lt;b&gt;BucketheadZombie&lt;/b&gt;&lt;/p&gt;&lt;hr size=&quot;1&quot; style=&quot;border-style:solid;&quot;&gt;&amp;nbsp;- health = 100&lt;br&gt;&lt;p style=&quot;margin: 0px 0px 0px 4px;&quot;&gt;&lt;span style=&quot;background-color: transparent; color: light-dark(rgb(0, 0, 0), rgb(255, 255, 255));&quot;&gt;- baseSpeed: = 1&lt;/span&gt;&lt;/p&gt;&lt;p style=&quot;margin: 0px 0px 0px 4px;&quot;&gt;&lt;span style=&quot;background-color: transparent; color: light-dark(rgb(0, 0, 0), rgb(255, 255, 255));&quot;&gt;- speed = 1&lt;/span&gt;&lt;/p&gt;&lt;p style=&quot;margin: 0px 0px 0px 4px;&quot;&gt;&lt;span style=&quot;background-color: transparent; color: light-dark(rgb(0, 0, 0), rgb(255, 255, 255));&quot;&gt;- damage = 5&lt;/span&gt;&lt;/p&gt;&lt;hr size=&quot;1&quot; style=&quot;border-style:solid;&quot;&gt;&lt;p style=&quot;margin:0px;margin-left:4px;&quot;&gt;+ BucketheadZombie(pos: Tile)&lt;/p&gt;" style="verticalAlign=top;align=left;overflow=fill;html=1;whiteSpace=wrap;" parent="1" vertex="1">
          <mxGeometry x="1450" y="534" width="190" height="126" as="geometry" />
        </mxCell>
        <mxCell id="kYvd2Tz3C7XksMRl13nF-11" value="" style="endArrow=block;endSize=16;endFill=0;html=1;rounded=0;entryX=0.5;entryY=1;entryDx=0;entryDy=0;exitX=0.5;exitY=0;exitDx=0;exitDy=0;" parent="1" source="kYvd2Tz3C7XksMRl13nF-7" target="kYvd2Tz3C7XksMRl13nF-1" edge="1">
          <mxGeometry width="160" relative="1" as="geometry">
            <mxPoint x="770" y="300" as="sourcePoint" />
            <mxPoint x="1090" y="250" as="targetPoint" />
            <Array as="points">
              <mxPoint x="850" y="280" />
              <mxPoint x="940" y="280" />
            </Array>
          </mxGeometry>
        </mxCell>
        <mxCell id="kYvd2Tz3C7XksMRl13nF-12" value="" style="endArrow=block;endSize=16;endFill=0;html=1;rounded=0;entryX=0.5;entryY=1;entryDx=0;entryDy=0;exitX=0.5;exitY=0;exitDx=0;exitDy=0;" parent="1" source="kYvd2Tz3C7XksMRl13nF-8" target="kYvd2Tz3C7XksMRl13nF-1" edge="1">
          <mxGeometry width="160" relative="1" as="geometry">
            <mxPoint x="940" y="320" as="sourcePoint" />
            <mxPoint x="1090" y="240" as="targetPoint" />
            <Array as="points">
              <mxPoint x="1090" y="280" />
              <mxPoint x="940" y="280" />
            </Array>
          </mxGeometry>
        </mxCell>
        <mxCell id="kYvd2Tz3C7XksMRl13nF-13" value="" style="endArrow=block;endSize=16;endFill=0;html=1;rounded=0;entryX=0.5;entryY=1;entryDx=0;entryDy=0;exitX=0.5;exitY=0;exitDx=0;exitDy=0;" parent="1" source="kYvd2Tz3C7XksMRl13nF-9" target="kYvd2Tz3C7XksMRl13nF-1" edge="1">
          <mxGeometry width="160" relative="1" as="geometry">
            <mxPoint x="1080" y="330" as="sourcePoint" />
            <mxPoint x="1080" y="250" as="targetPoint" />
            <Array as="points">
              <mxPoint x="1315" y="280" />
              <mxPoint x="1090" y="280" />
              <mxPoint x="940" y="280" />
            </Array>
          </mxGeometry>
        </mxCell>
        <mxCell id="kYvd2Tz3C7XksMRl13nF-14" value="" style="endArrow=block;endSize=16;endFill=0;html=1;rounded=0;entryX=0.5;entryY=1;entryDx=0;entryDy=0;exitX=0.5;exitY=0;exitDx=0;exitDy=0;" parent="1" source="kYvd2Tz3C7XksMRl13nF-10" target="kYvd2Tz3C7XksMRl13nF-1" edge="1">
          <mxGeometry width="160" relative="1" as="geometry">
            <mxPoint x="1250" y="320" as="sourcePoint" />
            <mxPoint x="1100" y="240" as="targetPoint" />
            <Array as="points">
              <mxPoint x="1545" y="280" />
              <mxPoint x="1240" y="280" />
              <mxPoint x="940" y="280" />
            </Array>
          </mxGeometry>
        </mxCell>
        <mxCell id="kYvd2Tz3C7XksMRl13nF-15" value="&lt;b&gt;&lt;font style=&quot;font-size: 36px;&quot;&gt;INPROGRESS&lt;/font&gt;&lt;/b&gt;" style="text;html=1;align=center;verticalAlign=middle;resizable=0;points=[];autosize=1;strokeColor=none;fillColor=none;" parent="1" vertex="1">
          <mxGeometry x="690" y="980" width="260" height="60" as="geometry" />
        </mxCell>
        <mxCell id="kYvd2Tz3C7XksMRl13nF-16" value="Plant&lt;div&gt;&lt;br&gt;&lt;/div&gt;" style="swimlane;fontStyle=1;align=center;verticalAlign=top;childLayout=stackLayout;horizontal=1;startSize=26;horizontalStack=0;resizeParent=1;resizeParentMax=0;resizeLast=0;collapsible=1;marginBottom=0;whiteSpace=wrap;html=1;" parent="1" vertex="1">
          <mxGeometry x="2305" y="40" width="360" height="400" as="geometry" />
        </mxCell>
        <mxCell id="kYvd2Tz3C7XksMRl13nF-17" value="# cost: int&lt;div&gt;# regenerateRate: float&lt;/div&gt;&lt;div&gt;# damage: int&lt;/div&gt;&lt;div&gt;# health: int&lt;/div&gt;&lt;div&gt;# range: int&lt;/div&gt;&lt;div&gt;# directDamage: int&lt;/div&gt;&lt;div&gt;# speed: float&lt;/div&gt;&lt;div&gt;# position: Tile&lt;/div&gt;" style="text;strokeColor=none;fillColor=none;align=left;verticalAlign=top;spacingLeft=4;spacingRight=4;overflow=hidden;rotatable=0;points=[[0,0.5],[1,0.5]];portConstraint=eastwest;whiteSpace=wrap;html=1;" parent="kYvd2Tz3C7XksMRl13nF-16" vertex="1">
          <mxGeometry y="26" width="360" height="134" as="geometry" />
        </mxCell>
        <mxCell id="kYvd2Tz3C7XksMRl13nF-18" value="" style="line;strokeWidth=1;fillColor=none;align=left;verticalAlign=middle;spacingTop=-1;spacingLeft=3;spacingRight=3;rotatable=0;labelPosition=right;points=[];portConstraint=eastwest;strokeColor=inherit;" parent="kYvd2Tz3C7XksMRl13nF-16" vertex="1">
          <mxGeometry y="160" width="360" height="8" as="geometry" />
        </mxCell>
        <mxCell id="kYvd2Tz3C7XksMRl13nF-19" value="&lt;div&gt;+ Plant(c: int, rR: float, d: float, h: float, r: float, dD: float, s: float)&lt;/div&gt;&lt;div&gt;&lt;br&gt;&lt;/div&gt;+ action(z: Zombie): int&lt;div&gt;+ takeDamage(z: Zombie) : void&lt;/div&gt;&lt;div&gt;+ isAlive() : boolean&lt;/div&gt;&lt;div&gt;&lt;br&gt;&lt;/div&gt;&lt;div&gt;+getCost() : int&lt;/div&gt;&lt;div&gt;+getRegenerateRate() : float&lt;/div&gt;&lt;div&gt;+getDamage(): float&lt;/div&gt;&lt;div&gt;+getHealth() : float&lt;/div&gt;&lt;div&gt;+getRange() : int&lt;/div&gt;&lt;div&gt;+getDirectDamage(): float&lt;/div&gt;&lt;div&gt;+getSpeed(): float&lt;/div&gt;&lt;div&gt;+getPosition(): Tile&lt;/div&gt;" style="text;strokeColor=none;fillColor=none;align=left;verticalAlign=top;spacingLeft=4;spacingRight=4;overflow=hidden;rotatable=0;points=[[0,0.5],[1,0.5]];portConstraint=eastwest;whiteSpace=wrap;html=1;" parent="kYvd2Tz3C7XksMRl13nF-16" vertex="1">
          <mxGeometry y="168" width="360" height="232" as="geometry" />
        </mxCell>
        <mxCell id="kYvd2Tz3C7XksMRl13nF-20" value="Sunflower" style="swimlane;fontStyle=1;align=center;verticalAlign=top;childLayout=stackLayout;horizontal=1;startSize=26;horizontalStack=0;resizeParent=1;resizeParentMax=0;resizeLast=0;collapsible=1;marginBottom=0;whiteSpace=wrap;html=1;" parent="1" vertex="1">
          <mxGeometry x="2087.5" y="570" width="235" height="240" as="geometry" />
        </mxCell>
        <mxCell id="kYvd2Tz3C7XksMRl13nF-21" value="# cost: int = 50&lt;div&gt;# regenerateRate: float = 2.5&lt;/div&gt;&lt;div&gt;# damage: int = 0&lt;/div&gt;&lt;div&gt;# health: int = 40&lt;/div&gt;&lt;div&gt;# range: int = 0&lt;/div&gt;&lt;div&gt;# directDamage: int = 0&lt;/div&gt;&lt;div&gt;# speed: float = 2.5&lt;/div&gt;&lt;div&gt;# position: Tile&lt;/div&gt;" style="text;strokeColor=none;fillColor=none;align=left;verticalAlign=top;spacingLeft=4;spacingRight=4;overflow=hidden;rotatable=0;points=[[0,0.5],[1,0.5]];portConstraint=eastwest;whiteSpace=wrap;html=1;" parent="kYvd2Tz3C7XksMRl13nF-20" vertex="1">
          <mxGeometry y="26" width="235" height="134" as="geometry" />
        </mxCell>
        <mxCell id="kYvd2Tz3C7XksMRl13nF-22" value="" style="line;strokeWidth=1;fillColor=none;align=left;verticalAlign=middle;spacingTop=-1;spacingLeft=3;spacingRight=3;rotatable=0;labelPosition=right;points=[];portConstraint=eastwest;strokeColor=inherit;" parent="kYvd2Tz3C7XksMRl13nF-20" vertex="1">
          <mxGeometry y="160" width="235" height="8" as="geometry" />
        </mxCell>
        <mxCell id="kYvd2Tz3C7XksMRl13nF-23" value="+ action(sun: int): int" style="text;strokeColor=none;fillColor=none;align=left;verticalAlign=top;spacingLeft=4;spacingRight=4;overflow=hidden;rotatable=0;points=[[0,0.5],[1,0.5]];portConstraint=eastwest;whiteSpace=wrap;html=1;" parent="kYvd2Tz3C7XksMRl13nF-20" vertex="1">
          <mxGeometry y="168" width="235" height="72" as="geometry" />
        </mxCell>
        <mxCell id="kYvd2Tz3C7XksMRl13nF-24" value="Peashooter" style="swimlane;fontStyle=1;align=center;verticalAlign=top;childLayout=stackLayout;horizontal=1;startSize=26;horizontalStack=0;resizeParent=1;resizeParentMax=0;resizeLast=0;collapsible=1;marginBottom=0;whiteSpace=wrap;html=1;" parent="1" vertex="1">
          <mxGeometry x="2372.5" y="570" width="230" height="168" as="geometry" />
        </mxCell>
        <mxCell id="kYvd2Tz3C7XksMRl13nF-25" value="# cost: int = 100&lt;div&gt;# regenerateRate: float = 4.5&lt;/div&gt;&lt;div&gt;# damage: int = 15&lt;/div&gt;&lt;div&gt;# health: int = 50&lt;/div&gt;&lt;div&gt;# range: int = 9&lt;/div&gt;&lt;div&gt;# directDamage: int =20&lt;/div&gt;&lt;div&gt;# speed: float = 2&lt;/div&gt;&lt;div&gt;# position: Tile&lt;/div&gt;" style="text;strokeColor=none;fillColor=none;align=left;verticalAlign=top;spacingLeft=4;spacingRight=4;overflow=hidden;rotatable=0;points=[[0,0.5],[1,0.5]];portConstraint=eastwest;whiteSpace=wrap;html=1;" parent="kYvd2Tz3C7XksMRl13nF-24" vertex="1">
          <mxGeometry y="26" width="230" height="134" as="geometry" />
        </mxCell>
        <mxCell id="kYvd2Tz3C7XksMRl13nF-26" value="" style="line;strokeWidth=1;fillColor=none;align=left;verticalAlign=middle;spacingTop=-1;spacingLeft=3;spacingRight=3;rotatable=0;labelPosition=right;points=[];portConstraint=eastwest;strokeColor=inherit;" parent="kYvd2Tz3C7XksMRl13nF-24" vertex="1">
          <mxGeometry y="160" width="230" height="8" as="geometry" />
        </mxCell>
        <mxCell id="kYvd2Tz3C7XksMRl13nF-28" value="Cherrybomb" style="swimlane;fontStyle=1;align=center;verticalAlign=top;childLayout=stackLayout;horizontal=1;startSize=26;horizontalStack=0;resizeParent=1;resizeParentMax=0;resizeLast=0;collapsible=1;marginBottom=0;whiteSpace=wrap;html=1;" parent="1" vertex="1">
          <mxGeometry x="2652.5" y="570" width="230" height="240" as="geometry" />
        </mxCell>
        <mxCell id="kYvd2Tz3C7XksMRl13nF-29" value="# cost: int = 150&lt;div&gt;# regenerateRate: float = 5.5&lt;/div&gt;&lt;div&gt;# damage: int = 1800&lt;/div&gt;&lt;div&gt;# health: int = 1000&lt;/div&gt;&lt;div&gt;# range: int = 1&lt;/div&gt;&lt;div&gt;# directDamage: int = 1800&lt;/div&gt;&lt;div&gt;# speed: float = 5.5&lt;/div&gt;&lt;div&gt;# position: Tile&lt;/div&gt;" style="text;strokeColor=none;fillColor=none;align=left;verticalAlign=top;spacingLeft=4;spacingRight=4;overflow=hidden;rotatable=0;points=[[0,0.5],[1,0.5]];portConstraint=eastwest;whiteSpace=wrap;html=1;" parent="kYvd2Tz3C7XksMRl13nF-28" vertex="1">
          <mxGeometry y="26" width="230" height="134" as="geometry" />
        </mxCell>
        <mxCell id="kYvd2Tz3C7XksMRl13nF-30" value="" style="line;strokeWidth=1;fillColor=none;align=left;verticalAlign=middle;spacingTop=-1;spacingLeft=3;spacingRight=3;rotatable=0;labelPosition=right;points=[];portConstraint=eastwest;strokeColor=inherit;" parent="kYvd2Tz3C7XksMRl13nF-28" vertex="1">
          <mxGeometry y="160" width="230" height="8" as="geometry" />
        </mxCell>
        <mxCell id="kYvd2Tz3C7XksMRl13nF-31" value="+ action(zombie: Zombie[][]): int" style="text;strokeColor=none;fillColor=none;align=left;verticalAlign=top;spacingLeft=4;spacingRight=4;overflow=hidden;rotatable=0;points=[[0,0.5],[1,0.5]];portConstraint=eastwest;whiteSpace=wrap;html=1;" parent="kYvd2Tz3C7XksMRl13nF-28" vertex="1">
          <mxGeometry y="168" width="230" height="72" as="geometry" />
        </mxCell>
        <mxCell id="kYvd2Tz3C7XksMRl13nF-48" value="NEED: int sun // for cost&lt;div&gt;&lt;br&gt;&lt;/div&gt;&lt;div&gt;action method included in each subclass is overloaded&amp;nbsp;&lt;/div&gt;" style="text;html=1;align=center;verticalAlign=middle;whiteSpace=wrap;rounded=0;" parent="1" vertex="1">
          <mxGeometry x="2080" y="80" width="170" height="190" as="geometry" />
        </mxCell>
        <mxCell id="5ORLc70mwK0iMiF9P5j_-1" value="&lt;span style=&quot;background-color: transparent; color: light-dark(rgb(0, 0, 0), rgb(255, 255, 255));&quot;&gt;&lt;b&gt;Documentation&lt;/b&gt;&lt;br&gt;&lt;br&gt;freezeFor // triggered by the snow pea hit&lt;/span&gt;&lt;div&gt;&lt;span style=&quot;background-color: transparent; color: light-dark(rgb(0, 0, 0), rgb(255, 255, 255));&quot;&gt;EXAMPLE USAGE:&amp;nbsp;&lt;/span&gt;&lt;span style=&quot;background-color: transparent; color: light-dark(rgb(0, 0, 0), rgb(255, 255, 255));&quot;&gt;zombie.freezeFor(&lt;/span&gt;&lt;span style=&quot;background-color: transparent; color: light-dark(rgb(0, 0, 0), rgb(255, 255, 255));&quot;&gt;3&lt;/span&gt;&lt;span style=&quot;background-color: transparent; color: light-dark(rgb(0, 0, 0), rgb(255, 255, 255));&quot;&gt;)&lt;/span&gt;&lt;/div&gt;&lt;div&gt;&lt;span style=&quot;background-color: transparent; color: light-dark(rgb(0, 0, 0), rgb(255, 255, 255));&quot;&gt;&lt;br&gt;&lt;/span&gt;&lt;/div&gt;&lt;div&gt;&lt;span style=&quot;background-color: transparent; color: light-dark(rgb(0, 0, 0), rgb(255, 255, 255));&quot;&gt;&lt;br&gt;&lt;/span&gt;&lt;div&gt;&lt;span style=&quot;background-color: transparent; color: light-dark(rgb(0, 0, 0), rgb(255, 255, 255));&quot;&gt;Update(): // called every game tick&lt;br&gt;If &lt;code&gt;isFreeze&lt;/code&gt; is &lt;code&gt;true&lt;/code&gt;, decrement &lt;code&gt;freezeTimer&lt;br&gt;&lt;/code&gt;&lt;/span&gt;&lt;span style=&quot;background-color: transparent; color: light-dark(rgb(0, 0, 0), rgb(255, 255, 255));&quot;&gt;Unfreeze the zombie when the timer reaches 0&lt;/span&gt;&lt;/div&gt;&lt;div&gt;EXAMPLE USAGE:&lt;br&gt;&lt;br&gt;&lt;pre&gt;for (Zombie z : zombieList) {&lt;br&gt;    z.update();&lt;br&gt;}&lt;/pre&gt;&lt;/div&gt;&lt;div&gt;baseSpeed: // Keeps the reference of normal speed&lt;/div&gt;&lt;div&gt;speed&amp;nbsp; &amp;nbsp; &amp;nbsp; &amp;nbsp; &amp;nbsp; // current and changes when freeze is applied&lt;/div&gt;&lt;/div&gt;" style="text;whiteSpace=wrap;html=1;" parent="1" vertex="1">
          <mxGeometry x="1110" y="-30" width="350" height="310" as="geometry" />
        </mxCell>
        <mxCell id="MRvEp4FrnYOevCNLKCXT-1" value="" style="endArrow=none;html=1;edgeStyle=orthogonalEdgeStyle;rounded=0;" edge="1" parent="1">
          <mxGeometry relative="1" as="geometry">
            <mxPoint x="2200" y="490" as="sourcePoint" />
            <mxPoint x="2800" y="490" as="targetPoint" />
          </mxGeometry>
        </mxCell>
        <mxCell id="MRvEp4FrnYOevCNLKCXT-4" value="" style="endArrow=none;html=1;edgeStyle=orthogonalEdgeStyle;rounded=0;" edge="1" parent="1">
          <mxGeometry relative="1" as="geometry">
            <mxPoint x="2200" y="570" as="sourcePoint" />
            <mxPoint x="2200" y="490" as="targetPoint" />
          </mxGeometry>
        </mxCell>
        <mxCell id="MRvEp4FrnYOevCNLKCXT-7" value="" style="endArrow=none;html=1;edgeStyle=orthogonalEdgeStyle;rounded=0;" edge="1" parent="1">
          <mxGeometry relative="1" as="geometry">
            <mxPoint x="2487.16" y="570" as="sourcePoint" />
            <mxPoint x="2487.16" y="490" as="targetPoint" />
          </mxGeometry>
        </mxCell>
        <mxCell id="MRvEp4FrnYOevCNLKCXT-8" value="" style="endArrow=none;html=1;edgeStyle=orthogonalEdgeStyle;rounded=0;" edge="1" parent="1">
          <mxGeometry relative="1" as="geometry">
            <mxPoint x="2800" y="570" as="sourcePoint" />
            <mxPoint x="2800" y="490" as="targetPoint" />
          </mxGeometry>
        </mxCell>
        <mxCell id="MRvEp4FrnYOevCNLKCXT-9" value="" style="endArrow=block;endFill=1;html=1;edgeStyle=orthogonalEdgeStyle;align=left;verticalAlign=top;rounded=0;entryX=0.514;entryY=1;entryDx=0;entryDy=0;entryPerimeter=0;" edge="1" parent="1">
          <mxGeometry x="-1" relative="1" as="geometry">
            <mxPoint x="2487.25" y="490" as="sourcePoint" />
            <mxPoint x="2487.29" y="440" as="targetPoint" />
          </mxGeometry>
        </mxCell>
      </root>
    </mxGraphModel>
  </diagram>
</mxfile>
